<svg width="620" height="477" viewBox="0 0 620 477" fill="none" xmlns="http://www.w3.org/2000/svg">
<path d="M933.826 38.4661C967.477 88.8226 967.951 156.279 940.856 209.616C912.781 264.866 856.299 296.711 794.702 294.863C735.25 293.047 675.016 261.048 649.341 205.741C625.327 154.003 632.705 79.868 691.773 55.7839C741.657 35.4535 807.938 59.4893 829.093 109.905C850.249 160.321 825.921 220.587 783.152 251.563C729.178 290.631 658.243 272.362 603.646 245.056C537.418 212.08 476.089 157.307 398.792 154.105C337.848 151.582 277.847 181.466 239.131 227.998C219.587 251.178 206.127 278.86 199.971 308.539C193.538 340.976 198.99 379.355 220.987 405.165C245.452 433.881 284.903 431.926 312.031 407.802C341.834 381.252 348.714 339.495 353.266 301.859C361.938 229.985 361.636 149.781 321.774 86.4656C286.414 30.4502 218.452 -10.6341 151.27 9.71265C75.1086 32.7856 37.1803 111.576 23.9806 184.19C16.8277 223.586 14.7251 263.81 12.3547 303.72C9.9394 344.294 7.80173 384.92 3.47506 425.389C-4.80312 502.058 -21.5496 578.787 -61.493 645.683C-98.9557 708.44 -155.749 759.955 -227.925 777.813C-295.109 794.534 -366.461 783.163 -430.163 758.489C-509.807 727.732 -580.319 677.696 -651.273 631.21L-878.872 482.12L-988.001 410.624C-990.35 409.086 -988.239 405.245 -985.89 406.755L-761.018 554.05C-687.868 601.98 -615.591 651.682 -540.889 697.163C-474.376 737.636 -402.248 772.643 -323.669 779.836C-288.87 783.025 -253.382 780.776 -219.702 770.975C-183.147 760.041 -149.659 740.685 -121.929 714.461C-0.478034 601.195 -0.274824 424.539 9.97239 271.28C14.8765 198.267 23.2364 119.77 71.2355 60.8332C91.9629 35.3369 119.487 14.3475 151.307 5.06214C180.243 -3.1008 211.067 -1.35304 238.873 10.0272C299.356 34.092 338.727 90.9112 353.475 152.673C361.676 187.228 363.282 223.057 361.489 258.376C359.639 294.458 356.711 333.228 343.868 367.254C332.924 396.224 310.576 423.34 278.963 429.965C250.715 435.868 224.856 421.36 210.115 397.586C178.005 345.806 195.131 279.034 229.512 233.129C263.622 187.616 317.065 156.099 373.824 150.432C446.072 143.271 507.964 184.666 567.182 219.795C623.258 253.082 696.922 288.977 762.067 258.867C814.107 234.819 847.444 168.479 825.815 113.49C803.996 57.9093 724.033 34.0639 675.652 69.7714C617.654 112.547 638.265 202.787 683.812 245.857C729.359 288.926 801.493 302.525 859.844 279.38C920.559 255.254 956.026 191.493 955.86 127.74C956.013 96.8336 947.026 66.5813 930.029 40.7861C928.442 38.4051 932.254 36.2093 933.826 38.4661Z" fill="#FF4C0D"/>
</svg>
