
<svg xmlns="http://www.w3.org/2000/svg" viewBox="0 0 1135.1 825.3">
<style type="text/css">
	.st0{fill:#FF4C0D;}
</style>
<path class="st0" d="M347.2,2.7c0.7-0.5,0.9-1.4,0.4-2.1c-0.5-0.7-1.4-0.9-2.1-0.4c-45.2,30.5-111.4,77.1-156.8,120.2
	c-22.7,21.5-40.4,42.3-47.5,60c-3.6,8.8-4.6,17.1-2.1,24.2c2.5,7.2,8.5,13,18.2,17.3c9.1,4,21.9,5.9,36.9,6.4
	c3.2,0.1,6.5,0.2,9.8,0.2l0.8-3c-3.6,0-7.1,0-10.5-0.2c-14.9-0.5-27.2-2.4-35.8-6.2c-9.2-4-14.5-9.3-16.6-15.5
	c-2.2-6.2-1.4-13.6,2.1-22.1c6.9-17,24.2-37.4,46.8-58.9C236,79.7,302,33.2,347.2,2.7z M246.8,223.1l-0.8,3.1
	c36.6-3.5,77.2-10.3,111.3-16.2c4.5-0.8,8.9-1.6,13.2-2.3l0,0l0,0h0l0,0c12-2.1,22.8-4,32.1-5.5c12.6-2.1,22.1-3.4,27.3-3.4
	c1.1,0,2,0,2.6,0.1c-0.4,0.4-1,0.8-1.8,1.3c-4.5,3-14.7,7.7-32,14.9c-68.4,28.4-197.5,112.5-290.3,197.7
	C62.2,455.4,24.7,498.4,8.6,535C0.5,553.3-2.3,570.2,2,584.7c2.9,9.8,9,18.4,18.7,25.5l2.1-2.2c-9.5-6.8-15.3-15-18-24.2
	c-4-13.5-1.4-29.7,6.5-47.6c15.9-36,52.9-78.6,99.2-121.2c92.5-85,221.4-168.9,289.4-197.1c17.3-7.2,27.7-12.1,32.5-15.2
	c1.2-0.8,2.1-1.5,2.8-2.2c0.5-0.6,1.3-1.7,0.7-3c-0.3-0.6-0.7-0.9-1.1-1.1c-0.4-0.2-0.9-0.4-1.3-0.4c-0.9-0.2-2.1-0.3-3.5-0.2
	c-5.4,0-15.2,1.4-27.8,3.4c-9.3,1.5-20.2,3.4-32.1,5.5l0,0c-4.3,0.8-8.7,1.5-13.3,2.3C323,212.9,283,219.6,246.8,223.1z M84,688.5
	c21.7-18,47.4-35.9,74.8-53l0.2-0.1l16.5-10l1.4-0.9c8-4.8,16.2-9.5,24.4-14.1c42.9-24,86.9-45.2,124.5-60.9
	c37.5-15.6,68.6-25.8,85.5-27.6c2.2-0.2,4-0.3,5.6-0.2c1.5,0.1,2.9,0.4,3.9,0.9c1.1,0.5,1.9,1.4,2.2,2.6c0.3,1.1,0,2.3-0.5,3.4
	c-1,2.1-3.3,4.6-6.4,7.4c-3.1,2.8-7.3,5.9-12.4,9.3c-19.2,12.9-51.5,29.8-90.3,45.3l-1.9-2.5c39-15.6,71.4-32.6,90.5-45.4
	c5-3.3,9-6.4,12.1-9c3-2.7,4.9-4.8,5.6-6.4c0.4-0.8,0.4-1.2,0.3-1.4c0-0.1-0.1-0.4-0.6-0.6c-0.5-0.3-1.4-0.5-2.7-0.6
	c-1.3-0.1-3,0-5.1,0.2c-16.4,1.8-47.1,11.8-84.6,27.4c-37.4,15.6-81.4,36.7-124.2,60.7c-7.4,4.1-14.7,8.3-22,12.6l0.1,0l-7.4,4.3
	l0.1,0c-32.2,19.4-62.6,40.1-87.7,60.8c-32.6,27-55.9,53.9-62.6,78.1c-3.4,12-2.2,21.7,3,29.4c5.2,7.7,14.7,13.6,28.6,17.7
	c27.8,8.1,72.5,8.4,132.8,1.5c110.3-12.6,272.2-49.3,477.4-105.9h11.3c-210.2,58.3-376,96.1-488.4,108.9
	c-60.4,6.9-105.6,6.6-134-1.6c-14.2-4.1-24.5-10.3-30.2-18.9c-5.8-8.6-6.9-19.2-3.4-31.8C27.4,743,51.4,715.6,84,688.5z
	 M748.5,691.2c172-49.3,271-84.4,325.5-108.3c28.5-12.5,45-22,53.4-28.9c4.2-3.4,6.6-6.4,7.4-9c0.4-1.3,0.4-2.7-0.2-3.8
	c-0.6-1.1-1.5-2-2.6-2.5c-0.7-0.4-1.6-0.1-2,0.6c-0.4,0.7-0.1,1.6,0.7,2c0.7,0.4,1.1,0.8,1.3,1.2c0.2,0.4,0.3,0.9,0,1.7
	c-0.5,1.7-2.3,4.1-6.4,7.5c-8.1,6.6-24.3,16-52.7,28.5c-54.3,23.8-152.9,58.8-324.3,107.9V691.2z M261.3,606.1l2.1,2.5
	c-11.5,3.7-23.3,7.1-35.3,10.2l-1.5-2.7C238.3,613.1,250,609.7,261.3,606.1z M433.2,198.2C433.2,198.2,433.2,198.2,433.2,198.2
	C433.2,198.2,433.2,198.2,433.2,198.2z"/>
</svg>
