<svg width="749" height="792" viewBox="0 0 749 792" fill="none" xmlns="http://www.w3.org/2000/svg">
<path fill-rule="evenodd" clip-rule="evenodd" d="M347.187 -30.7567C347.873 -31.2203 348.054 -32.1527 347.59 -32.8393C347.127 -33.5258 346.194 -33.7066 345.508 -33.243C300.342 -2.7437 234.123 43.8173 188.69 86.9119C166.009 108.425 148.328 129.238 141.146 146.872C137.545 155.71 136.505 163.94 139.005 171.111C141.518 178.319 147.496 184.141 157.25 188.376C166.356 192.33 179.154 194.257 194.166 194.79C197.341 194.902 200.621 194.953 203.994 194.946L204.778 191.944C201.162 191.96 197.655 191.912 194.273 191.792C179.372 191.263 167.028 189.351 158.445 185.624C149.199 181.609 143.994 176.307 141.838 170.123C139.669 163.904 140.472 156.477 143.924 148.004C150.845 131.012 168.102 110.575 190.755 89.0884C235.988 46.183 302.019 -0.255997 347.187 -30.7567ZM246.834 189.561L246.003 192.654C282.6 189.192 323.204 182.398 357.326 176.436C361.85 175.646 366.259 174.87 370.53 174.119L370.573 174.111L370.608 174.105L370.61 174.105L370.616 174.104C382.57 172.001 393.437 170.089 402.697 168.578C415.327 166.518 424.832 165.227 430.004 165.188C431.144 165.179 432.006 165.233 432.616 165.333C432.227 165.684 431.644 166.128 430.817 166.667C426.294 169.619 416.113 174.416 398.772 181.615C330.371 210.012 201.226 294.124 108.496 379.318C62.1522 421.896 24.7238 464.903 8.59869 501.491C0.532093 519.794 -2.29265 536.691 1.98917 551.19C4.89372 561.025 11.0225 569.608 20.7319 576.703L22.8429 574.53C13.3773 567.709 7.58487 559.545 4.86632 550.34C0.868263 536.802 3.41801 520.685 11.3439 502.701C27.2037 466.715 64.2323 424.059 110.526 381.527C203.072 296.502 331.927 212.615 399.922 184.386C417.207 177.21 427.659 172.31 432.457 169.18C433.655 168.398 434.603 167.662 435.218 166.966C435.743 166.371 436.505 165.242 435.905 163.998C435.634 163.437 435.176 163.092 434.773 162.881C434.367 162.667 433.907 162.53 433.447 162.436C432.527 162.247 431.346 162.178 429.981 162.188C424.533 162.229 414.786 163.566 402.214 165.618C392.933 167.132 382.038 169.049 370.076 171.153L370.072 171.154C365.78 171.909 361.351 172.688 356.81 173.481C323.031 179.383 283.008 186.08 246.834 189.561ZM83.9988 655.041C105.735 637.034 131.437 619.108 158.813 602.053L159 602L175.5 592L176.873 591.067C184.915 586.287 193.054 581.594 201.236 577.005C244.099 552.966 288.182 531.779 325.721 516.14C363.199 500.525 394.318 490.369 411.183 488.509C413.361 488.269 415.227 488.196 416.78 488.295C418.314 488.393 419.644 488.663 420.681 489.184C421.758 489.725 422.587 490.579 422.869 491.783C423.134 492.917 422.845 494.085 422.333 495.161C421.317 497.297 419.081 499.788 415.983 502.515C412.843 505.278 408.675 508.405 403.618 511.796C384.449 524.649 352.133 541.548 313.359 557.145L311.496 554.661C350.469 539.034 382.877 522.091 401.947 509.304C406.941 505.956 410.993 502.91 414.001 500.263C417.049 497.58 418.885 495.425 419.624 493.873C419.988 493.106 419.996 492.671 419.948 492.466C419.916 492.33 419.821 492.109 419.335 491.865C418.807 491.6 417.932 491.374 416.589 491.289C415.266 491.205 413.584 491.263 411.512 491.491C395.123 493.299 364.366 503.289 326.874 518.909C289.443 534.504 245.465 555.64 202.703 579.622C195.334 583.754 188.003 587.971 180.748 592.258L180.86 592.239L173.5 596.5L173.597 596.521C141.387 615.899 110.977 636.588 85.9126 657.351C53.3303 684.342 30.0338 711.256 23.292 735.404C19.9372 747.42 21.0742 757.107 26.2464 764.761C31.4546 772.468 40.9334 778.386 54.8287 782.427C82.6442 790.517 127.322 790.851 187.677 783.947C297.963 771.332 459.897 734.642 665.119 678H676.371C466.158 736.294 300.41 774.071 188.018 786.928C127.623 793.836 82.4254 793.577 53.9909 785.308C39.7612 781.169 29.5212 774.965 23.7607 766.441C17.9642 757.862 16.8824 747.205 20.4025 734.597C27.4108 709.494 51.3635 682.075 83.9988 655.041ZM748.5 657.684C920.497 608.417 1019.47 573.3 1074.03 549.378C1102.52 536.889 1119.01 527.405 1127.47 520.491C1131.65 517.07 1134.1 514.1 1134.87 511.522C1135.27 510.175 1135.24 508.871 1134.67 507.708C1134.12 506.568 1133.16 505.746 1132.04 505.168C1131.3 504.787 1130.4 505.075 1130.01 505.811C1129.63 506.547 1129.92 507.452 1130.66 507.833C1131.39 508.213 1131.79 508.627 1131.97 509.013C1132.15 509.376 1132.23 509.889 1132 510.663C1131.5 512.326 1129.68 514.813 1125.57 518.169C1117.45 524.809 1101.27 534.161 1072.83 546.631C1018.54 570.434 919.945 605.433 748.5 654.563V657.684ZM261.327 572.647L263.382 575.143C251.846 578.815 240.035 582.238 228.077 585.307L226.595 582.59C238.349 579.588 249.968 576.241 261.327 572.647ZM433.162 164.719C433.164 164.719 433.159 164.731 433.144 164.755C433.153 164.731 433.161 164.718 433.162 164.719Z" fill="#FF4C0D"/>
</svg>
