<svg style="display:none !important;" xmlns="http://www.w3.org/2000/svg">

    <symbol id="slider_svg" viewBox="0 0 569.3 430.1" fill="none">
        <style type="text/css">
            .slider_svg {
            fill: none;
            stroke: currentColor;
            stroke-width: 5;
            stroke-miterlimit: 10;
            stroke-dasharray: 2000;
            stroke-dashoffset: -2000;
            animation: draw 2s linear forwards;
            }

            @keyframes draw {
            to { stroke-dashoffset: 0; }
            }
        </style>
        <path class="slider_svg" d="M25.8,322.7c-55.8-145.2-4.2-280,77.2-312.4c80.1-31.8,177,40.2,222.8,97.9c80.7,101.8,86.8,265.6,24,307.5
	c-28.8,19.2-73.8,14.1-99-7.5c-40.9-35-29-112.8-1.5-159c41.5-69.6,125.3-79.3,153-82.5c38.5-4.5,86.7-10,111,18
	c29.2,33.6-2.5,85,33,159c7.6,15.8,15.8,27.6,21,34.5"/>
    </symbol>

    <symbol id="single-banner_svg" viewBox="0 0 569.3 430.1" fill="none">
        <style type="text/css">
            .single-banner-svg {
            fill: none;
            stroke: currentColor;
            stroke-width: 5;
            stroke-miterlimit: 10;
            stroke-dasharray: 2000;
            stroke-dashoffset: 2000;
            animation: draw 2s linear forwards;
            animation-delay: 1.2s;
            }

            @keyframes draw {
            to { stroke-dashoffset: 0; }
            }
        </style>
        <path class="single-banner-svg" d="M25.8,322.7c-55.8-145.2-4.2-280,77.2-312.4c80.1-31.8,177,40.2,222.8,97.9c80.7,101.8,86.8,265.6,24,307.5
                    c-28.8,19.2-73.8,14.1-99-7.5c-40.9-35-29-112.8-1.5-159c41.5-69.6,125.3-79.3,153-82.5c38.5-4.5,86.7-10,111,18
                    c29.2,33.6-2.5,85,33,159c7.6,15.8,15.8,27.6,21,34.5"/>
    </symbol>

    <symbol id="cards_svg" viewBox="0 0 698.8 596" fill="none">
        <style type="text/css">
            .cards-svg {
            fill: none;
            stroke: currentColor;
            stroke-linecap: round;
            stroke-width: 5;
            stroke-miterlimit: 10;
            stroke-dasharray: 3000;
            stroke-dashoffset: -3000;
            animation: draw 2s linear forwards 2s;
            }

            @keyframes draw {
            to { stroke-dashoffset: 0; }
            }
        </style>
        <path class="cards-svg" d="M68.5,1.9C53.4,14.4,40.4,27.4,30.4,44.4c-1,1-2,2-3,3c-32,56-35,124,2,180c1,1,2,2,3,3c10,17,24,28,40,40
            c21,14,43,22,67,26c43,7,84,1,121-24c2-2,4-3,7-5c42-35,69-95,42-146c-6-11-13-19-23-27c-24-18-52-24-81-21c-11,2-22,5-33,9
            c-6,3-12,7-18,11c-9,7-15,14-21,23c-7,11-11,21-14,33s-4,24-3,37c2,23,8,44,21,64c11,15,22,28,39,36c1,1,2,2,3,3c47,25,99,23,150,15
            c73-13,145-38,216-12c39,15,71,41,94,77c3,5,6,10,9,15c10,19,17,38,21,59c2,14,4,28,3,42c-3,42-22,87-63,104c-17,6-35,6-51-4
            c-15-9-26-23-32-39c-4-12-7-24-7-37c0-47,13-93,29-138c12-32,26-61,48-88c27-32,61-57,101.8-66.8"/>
    </symbol>


    <symbol id="banner_svg" viewBox="0 0 1756.5 1137.8" fill="none">
        <style type="text/css">
            .banner-svg {
            fill: none;
            stroke: currentColor;
            stroke-width: 5;
            stroke-miterlimit: 10;
            stroke-dasharray: 5000;
            stroke-dashoffset: 5000;
            animation: draw 2s linear forwards 1s;
            }

            @keyframes draw {
            to { stroke-dashoffset: 0; }
            }
        </style>
        <path class="banner-svg " d="M67.6,2C19.1,38.3-3.8,101.7,4,161c8.1,61.4,50.7,110.3,109.4,129c56.7,18.1,124.1,8,166.7-35.6
                    c39.9-40.8,57.6-113.2,9.9-155.5c-40.3-35.8-110.8-35.2-147.5,5.3c-36.7,40.5-33.9,105.4-3.8,148.9c37.9,54.8,110.9,61.2,171.4,53.6
                    c73.4-9,149.5-40.3,223.4-17.6c58.3,17.9,104.9,66.1,125.9,122.8c10.7,28.4,14.2,58.9,10.1,89c-4.7,32.7-22.7,67.1-52,84.1
                    c-32.6,18.9-69.2,4-86.7-27.8c-19.3-35-11.8-76.6-3.6-113.6c15.8-70.7,42.7-146.2,101.4-192.6c52-41,129.8-57.2,186.3-15.6
                    c64.1,47.1,73.7,134,61.9,206.9c-6.4,39.5-17.8,78.2-28.8,116.6C836.9,598,825.4,637,816,676.6c-17.7,75.1-27.5,153-12.1,229.4
                    c14.4,71.6,50.8,139.1,112.9,180c57.8,38.1,128.8,51.2,197.1,49.1c85.3-2.5,168.5-26.2,250.9-46.4l264.3-64.8l126.7-31.1"/>
    </symbol>

    <symbol id="tab_svg" viewBox="0 0 1954.2 790.7" fill="none">
        <style type="text/css">
            .tab-svg {
            fill: none;
            stroke: currentColor;
            stroke-width: 5;
            stroke-linecap: round;
            stroke-miterlimit: 10;
            stroke-dasharray: 4800;
            stroke-dashoffset: 4800;
            animation: draw linear forwards;
            animation-duration: 2s;
            }

            @keyframes draw {
            to { stroke-dashoffset: 0; }
            }
        </style>
        <path class="tab-svg" d="M1925.4,41c33.7,50.4,34.1,117.8,7,171.1c-28.1,55.2-84.6,87.1-146.2,85.2c-59.5-1.8-119.7-33.8-145.4-89.1
            c-24-51.7-16.6-125.9,42.4-150c49.9-20.3,116.2,3.7,137.3,54.1c21.2,50.4-3.2,110.7-45.9,141.7c-54,39.1-124.9,20.8-179.5-6.5
            c-66.2-33-127.6-87.7-204.9-91c-60.9-2.5-120.9,27.4-159.7,73.9c-19.5,23.2-33,50.9-39.2,80.5c-6.4,32.4-1,70.8,21,96.6
            c24.5,28.7,63.9,26.8,91,2.6c29.8-26.5,36.7-68.3,41.2-105.9c8.7-71.9,8.4-152.1-31.5-215.4c-35.4-56-103.3-97.1-170.5-76.8
            c-76.2,23.1-114.1,101.9-127.3,174.5c-7.2,39.4-9.3,79.6-11.6,119.5c-2.4,40.6-4.6,81.2-8.9,121.7c-8.3,76.7-25,153.4-65,220.3
            c-37.5,62.8-94.3,114.3-166.4,132.1c-67.2,16.7-138.5,5.4-202.2-19.3C481.5,730,410.9,680,340,633.5L112.7,484.6L3.5,413.1"/>
    </symbol>

    <symbol id="hero-2_svg" viewBox="0 0 1145.1 834.8">
        <style type="text/css">
            .hero-2-svg {
            fill: none;
            stroke: currentColor;
            stroke-width: 5;
            stroke-linecap: round;
            stroke-miterlimit: 10;
            stroke-dasharray: 2000;
            stroke-dashoffset: -2000;
            animation: draw linear forwards;
            }

            .p1 { animation-delay: 0.1s; animation-duration: 0.5s; }
            .p2 { animation-delay: 0.4s; animation-duration: 0.6s; }
            .p3 { animation-delay: 1.1s; animation-duration: 0.15s; }
            .p4 { animation-delay: 1.15s; animation-duration: 1s; }
            .p5 { animation-delay: 2.25s; animation-duration: 0.3s; }

            @keyframes draw {
            to { stroke-dashoffset: 0; }
            }
        </style>
        <path class="p1 hero-2-svg " stroke="red" d="M198.9,234.1c-15-0.5-27.8-2.4-36.9-6.4c-9.7-4.3-15.7-10.1-18.2-17.3c-2.5-7.1-1.5-15.4,2.1-24.2
                                c7.1-17.7,24.8-38.5,47.5-60C238.8,83.1,305,36.5,350.2,6"/>
        <path class="p2 hero-2-svg " d="M17.9,611.9c-9.7-7.1-11.2-12-14.1-21.8c-4.3-14.5-1.5-31.4,6.6-49.7c16.1-36.6,53.6-79.6,99.8-122.2
                                C203,333,332.1,248.9,400.5,220.5c17.3-7.2,27.9-11.6,32.4-14.6c0.8-0.5,1.7-1,1.4-1.6c-0.2-0.7-1.6-0.7-2.8-0.6
                                c-5.2,0.6-14.5,1.8-27.1,3.9c-9.3,1.5-20.1,3.4-32.1,5.5c-4.3,0.7-8.7,1.5-13.2,2.3c-34.1,5.9-74.7,12.7-111.3,16.2"/>
        <path class="p3 hero-2-svg " d="M256.3,616.6c-11.5,3.7-14.4,4.5-26.4,7.6"/>
        <path class="p4 hero-2-svg " d="M619.8,732.3c-197.4,54.1-322.3,81.3-429.8,93.5c-60.4,6.9-105.6,6.6-134-1.6c-14.2-4.1-24.5-10.3-30.2-18.9
                                c-5.8-8.6-6.9-19.2-3.4-31.8c7-25.1,31-52.5,63.6-79.6c21.7-18,47.4-35.9,74.8-53l0.2-0.1l16.5-10l1.4-0.9c8-4.8,16.2-9.5,24.4-14.1
                                c42.9-24,86.9-45.2,124.5-60.9c37.5-15.6,68.6-25.8,85.5-27.6c2.2-0.2,4-0.3,5.6-0.2c1.5,0.1,2.9,0.4,3.9,0.9
                                c1.1,0.5,1.9,1.4,2.2,2.6c0.3,1.1,0,2.3-0.5,3.4c-1,2.1-3.3,4.6-6.4,7.4c-3.1,2.8-7.3,5.9-12.4,9.3c-19.2,12.9-51.5,29.8-90.3,45.3"/>
        <path class="p5 hero-2-svg " d="M1131.8,544.7c0.4-0.7,1.3-1,2-0.6c1.1,0.5,2,1.4,2.6,2.5s0.6,2.5,0.2,3.8c-0.8,2.6-3.2,5.6-7.4,9
                                c-7.9,6.5-23.1,15.4-48.9,26.9"/>
    </symbol>

</svg>